<svg width="400" height="246" fill="none" xmlns="http://www.w3.org/2000/svg"><path fill-rule="evenodd" clip-rule="evenodd" d="M11.06 189.277a5.885 5.885 0 01-3.586.07C2.69 188.049.62 180.003.62 170.788c0-13.758 4.654-30.11 11.379-29.204 2.974.389 3.75 2.725 3.75 5.451a51.905 51.905 0 01-1.034 7.786 48.742 48.742 0 00-.259 5.191c0 2.455.061 5.367.124 8.367.066 3.187.135 6.473.135 9.415 0 4.672-.13 8.435-.776 9.344a5.894 5.894 0 01-2.88 2.139zm5.68-67.394c.9.496 1.668 1.2 2.242 2.053h.002c1.68 8.825-3.104 12.979-7.239 12.975a5.545 5.545 0 01-4.124-1.67 5.546 5.546 0 01-1.566-4.171 14.105 14.105 0 011.94-6.226 6.563 6.563 0 015.815-3.764 6.462 6.462 0 012.93.803zm42.59 54.615c0 1.299 0 2.596.13 4.024.494 1.284.757 2.647.776 4.023 0 5.322-4.01 9.475-7.63 9.475a4.51 4.51 0 01-3.492-1.688c-1.862-2.218-2.049-3.388-2.444-5.868-.044-.276-.09-.569-.143-.881-.839-5.685-.912-12.311-.98-18.351-.015-1.405-.03-2.778-.054-4.101-.259-5.97-1.035-7.527-2.328-6.749-3.802 2.611-5.437 14.466-6.58 22.764-.336 2.427-.628 4.55-.92 6.048a6.285 6.285 0 01-3.493 3.764 6.04 6.04 0 01-5.172-.26c-4.139-1.947-5.303-7.916-6.079-12.07a65.152 65.152 0 01-1.293-12.2 80.023 80.023 0 012.716-23.49c.517-1.557 2.586-2.597 4.655-2.597 1.812 0 3.623.78 4.01 2.856.515 3.014.575 6.542.632 9.939.029 1.724.057 3.414.145 4.987 2.845-12.59 7.24-14.797 14.612-15.056 10.087 0 11.898 12.46 12.932 20.376.21 1.766.296 3.544.259 5.322 0 1.671-.063 3.215-.127 4.773-.066 1.588-.132 3.192-.132 4.96zm27.888-7.458c-.545.016-1.09.032-1.636.06.063.964.14 1.994.22 3.079.257 3.446.555 7.444.549 11.595 0 8.952-1.681 18.297-9.44 22.19-2.586 1.558-12.415-1.557-10.734-7.397a13.707 13.707 0 011.682-3.375c0-.129 0-.129.258-.389 3.621-4.283 4.656-9.344 4.656-14.666 0-2.989-.325-6.142-.652-9.328-.085-.826-.17-1.654-.25-2.482-3.1-.265-5.69-1.173-6.208-4.418-.478-3.72 2.026-4.222 4.863-4.79.231-.046.464-.093.698-.142-.517-6.878.517-16.482 5.044-22.971 3.75-4.932 9.18-7.917 15.647-6.619 2.073.39 3.107 2.723 3.107 4.932 0 2.332-1.163 4.802-3.362 4.541-7.5-1.038-7.371 13.888-7.242 18.949 2.874-.367 5.78-.41 8.665-.129a5.04 5.04 0 012.803 1.923 5.055 5.055 0 01.947 3.268 5.518 5.518 0 01-3.88 5.451c-1.913.606-3.824.662-5.735.718zm13.624-25.767c.651-8.824 2.845-21.543 6.465-29.59h.001a4.258 4.258 0 014.263-2.986c2.716 0 5.558 2.076 4.656 5.451-1.94 7.268-2.587 16.093-2.587 25.178 0 7.943.473 16.139.92 23.902.459 7.965.892 15.473.761 21.783 0 2.466-2.069 3.894-4.526 3.894a6.997 6.997 0 01-5.815-3.245 19.616 19.616 0 01-1.81-4.543 47.406 47.406 0 01-1.423-8.565 148.336 148.336 0 01-1.422-19.987c-.021-3.77.151-7.539.517-11.292zm56.49 8.772c.056 1.24.111 2.471.153 3.688.019 1.01.033 2.045.046 3.101.079 6.002.166 12.653 1.373 18.839.261 1.394.695 2.612 1.11 3.772.82 2.299 1.56 4.371.701 7.131-.905 3.114-5.948 4.932-8.793 2.855-4.405-3.158-4.401-12.709-4.397-19.679v-.568c-2.457 10.773-7.76 15.315-12.802 15.315-2.975 0-5.949-1.688-8.277-4.542-4.268-5.322-5.302-12.329-5.302-19.078.208-5.336 1.426-10.504 2.635-15.638.291-1.235.581-2.467.857-3.7a4.296 4.296 0 012.033-2.592 4.3 4.3 0 013.269-.393c2.59.52 3.496 2.987 3.108 5.322a72.76 72.76 0 00-.647 9.994c0 9.733 2.457 14.276 5.302 14.276 3.753 0 8.02-7.788 8.02-21.544 0-1.433 0-2.861-.129-4.418-.134-3.244 2.581-5.581 5.815-5.71 3.103-.131 5.56 2.725 5.69 5.71 0 2.632.118 5.265.235 7.859zm41.756 17.933c1.151-1.261 2.066-2.263 2.753-2.435 2.456-.389 5.177 0 5.301 2.596 0 7.139-7.5 13.884-13.319 16.093a22.422 22.422 0 01-8.277 1.688c-11.765 0-19.785-10.773-19.785-22.453a26.14 26.14 0 011.939-9.734 26.408 26.408 0 0110.475-12.071 20.1 20.1 0 0110.216-3.113 12.947 12.947 0 016.854 1.817c3.75 2.334 5.302 5.321 5.302 8.434 0 5.971-5.561 12.331-10.216 15.965a35.807 35.807 0 01-9.052 5.451c2.976 2.855 5.56 3.893 7.888 3.893 4.32 0 7.601-3.592 9.921-6.131zm-19.067-5.319c4.17-3.137 9.52-7.161 10.827-12.171-5.685-.389-12.026 6.489-12.026 12.979v.129a.123.123 0 00.092-.037.12.12 0 00.028-.042.108.108 0 00.009-.05c.345-.263.703-.532 1.07-.808zm69.537 11.839c0 1.299 0 2.596.129 4.024.494 1.285.756 2.647.774 4.023 0 5.322-4.008 9.475-7.629 9.475a4.508 4.508 0 01-3.492-1.688c-1.861-2.218-2.048-3.388-2.444-5.868-.044-.276-.09-.569-.142-.881-.839-5.685-.913-12.311-.98-18.351-.015-1.405-.03-2.778-.055-4.101-.258-5.97-1.034-7.527-2.328-6.749-2.624 1.803-4.216 8.013-5.327 14.417-.368 6.816-1.005 14.89-2.614 22.215-1.607 3.803-2.418 4.663-2.418 4.663.494.079.643.186.797.296.135.097.274.197.654.283.46.104 1.983.579 3.374 1.014 1.068.333 2.057.641 2.427.739 1.351.399 2.297.665 3.137.902 1.516.427 2.688.756 5.277 1.596a253.81 253.81 0 0012.241 3.64 163.373 163.373 0 0012.475 2.855 67.175 67.175 0 0012.416 1.173c4.55.013 9.08-.608 13.459-1.845a37.521 37.521 0 0012.416-6.326v-.109h.117a.215.215 0 01.058-.17c.009-.01.017-.022.025-.034a.214.214 0 00.032-.1l.001-.005v.083l.231-.56h.117v-.186l.005-.037h.12v-.112h-.115l.115-.112a4.065 4.065 0 011.857-2.912 6.754 6.754 0 013.481-1.232 4.293 4.293 0 012.607.616 4.463 4.463 0 011.798 1.958 7.84 7.84 0 011.335 2.966 9.953 9.953 0 01.29 3.08 12.531 12.531 0 01-1.914 5.987 17.996 17.996 0 01-4.236 4.59 25.152 25.152 0 01-5.628 3.246 43.558 43.558 0 01-6.208 2.072 70.879 70.879 0 01-17.521 2.126 84.039 84.039 0 01-8.703-.448 167.932 167.932 0 01-8.587-1.119 148.529 148.529 0 01-17.579-4.197 903.18 903.18 0 00-17.348-5.094 28.63 28.63 0 00-3.597-1.12 56.75 56.75 0 00-3.828-.783l-.117.561a240.79 240.79 0 01-2.727 8.506 58.05 58.05 0 01-3.538 8.229 40.602 40.602 0 01-5.048 7.442 33.334 33.334 0 01-7.018 6.157 24.575 24.575 0 01-13.46 3.916 26.322 26.322 0 01-4.177-.336 22.36 22.36 0 01-8.007-3.246 16.591 16.591 0 01-5.801-6.158 19.283 19.283 0 01-2.321-9.178 20.643 20.643 0 011.682-8.115 28.637 28.637 0 014.584-7.387 37.492 37.492 0 016.616-6.1 36.886 36.886 0 017.89-4.366 49.433 49.433 0 0110.927-2.799 81.901 81.901 0 0111.228-.782c.229-.912.495-1.629.744-2.301.423-1.142.797-2.152.86-3.764.073-1.917.042-3.837.014-5.61-.021-1.345-.041-2.606-.014-3.717.086-1.753-.102-4.398-.261-6.636-.028-.396-.056-.779-.08-1.142a65.068 65.068 0 01-.749-9.144 80.072 80.072 0 012.714-23.49c.518-1.557 2.587-2.597 4.656-2.597 1.812 0 3.622.78 4.01 2.856.515 3.014.574 6.541.631 9.939.03 1.724.058 3.414.145 4.987 2.845-12.59 7.242-14.797 14.613-15.056 10.088 0 11.898 12.46 12.932 20.376.209 1.766.295 3.544.259 5.322 0 1.671-.064 3.215-.128 4.773-.065 1.588-.131 3.192-.131 4.96zm52.732 24.388l.002-.003-.001.003h-.001zm0 0l-.004.008v-.008h.004zm-.004.008v.029a.332.332 0 01-.111.183l.111-.212zm-.348.662v.03-.03zm-10.222-35.7c1.294-1.428 3.104-1.817 5.044-1.947a5.029 5.029 0 014.012 2.337 7.854 7.854 0 011.035 3.763c0 3.894-2.587 8.047-5.043 10.513a45.203 45.203 0 01-11.51 7.267 20.538 20.538 0 01-6.853 1.169 22.594 22.594 0 01-8.709-1.829 22.629 22.629 0 01-7.331-5.05 18.622 18.622 0 01-5.301-13.498 27.285 27.285 0 012.456-10.901c4.656-10.254 12.286-17.392 22.501-17.392 1.828.032 3.648.249 5.432.65 4.785 1.038 6.983 4.282 6.983 7.007 0 3.116-2.845 5.582-7.63 3.246a.36.36 0 00-.388-.26c-9.44 0-13.707 7.658-13.707 14.146 0 4.803 2.328 9.085 6.594 9.085 3.104 0 7.372-2.336 12.415-8.306zm38.926.909a35.853 35.853 0 01-9.052 5.451c2.327 4.153 5.689 6.359 11.767 5.188 11.768-2.463 16.811-16.48 16.811-27.512a29.296 29.296 0 00-.517-5.969c-1.681-7.788-9.698-12.72-20.303-12.72a40.466 40.466 0 00-10.732 1.558l-1.255.234c-8.77 1.64-18.882 3.53-28.877 3.53-12.802 0-25.214-3.245-33.234-14.666a25.165 25.165 0 01-3.621-8.046c-.776-3.25.905-9.475 4.656-9.475a5.508 5.508 0 013.879 1.947h.13c.258.26.388.649.258.649 7.112 12.591 17.713 15.704 29.743 15.704 6.095 0 12.54-.799 19.035-1.604 6.597-.817 13.245-1.641 19.63-1.641 6.984 0 13.579.911 19.527 4.024 10.087 5.32 14.354 14.795 14.354 24.918 0 18.947-14.871 40.234-33.751 40.234a27.534 27.534 0 01-12.285-2.986c-6.724-3.374-10.734-11.293-10.734-19.727a25.179 25.179 0 011.94-10.123 26.408 26.408 0 0110.475-12.071 20.1 20.1 0 0110.216-3.113 12.947 12.947 0 016.854 1.817c3.75 2.334 5.302 5.321 5.302 8.434 0 5.971-5.561 12.331-10.216 15.965zm-10.31-2.106c4.17-3.137 9.519-7.161 10.827-12.171-5.69-.389-12.026 6.489-12.026 12.979v.129l.022-.001a.129.129 0 00.098-.078.108.108 0 00.009-.05c.345-.263.703-.532 1.07-.808zm68.763-22.424c1.746.015 3.468.414 5.043 1.168a7.386 7.386 0 014.009 6.617c0 3.114-1.938 5.969-5.43 5.969a8.721 8.721 0 01-4.01-1.038l-1.164-.389h-.776c-8.793 2.08-9.957 18.692-9.957 26.608a6.923 6.923 0 01-1.927 4.886 6.902 6.902 0 01-4.798 2.123c-3.746.129-6.854-3.375-6.854-7.009a17.47 17.47 0 01-.129-2.725v-.003c0-5.321 0-10.9.129-16.349 0-3.245.129-6.489.388-9.735a69.942 69.942 0 011.293-10.123c.259-2.206 2.716-3.504 4.656-3.634 1.94-.129 6.207 1.299 6.466 3.375.388 1.687-.647 10.901-1.034 12.2 3.878-8.566 9.051-11.941 14.095-11.941zM47.838 94.478a26.34 26.34 0 013.364.744c1.08.315 2.088.841 2.964 1.547a3.888 3.888 0 011.346 4.054 5.233 5.233 0 01-2.288 3.514l-1.75 1.08c.168.417.302.847.402 1.285.088.403.178.832.268 1.281a5.057 5.057 0 01-2.423 5.944 4.183 4.183 0 01-3.297.54 6.588 6.588 0 01-3.029-1.485l-1.48-1.216a31.762 31.762 0 00-1.75 1.621 13.94 13.94 0 01-1.749 1.485 7.204 7.204 0 01-4.038 1.351 4.326 4.326 0 01-3.904-2.159 5.134 5.134 0 01-.538-3.916 8.724 8.724 0 012.019-3.515l.675-1.887-1.616-1.217c-2.063-1.621-2.825-3.512-2.287-5.673a4.12 4.12 0 011.75-2.703 5.002 5.002 0 012.959-1.08c.533.09 1.073.136 1.615.136h1.48l1.077-2.436a4.169 4.169 0 012.286-2.158 6.149 6.149 0 012.961-.54c1.034.12 2.002.57 2.759 1.284a6.729 6.729 0 011.55 2.5l.674 1.62zm288.759-9.114c1.137.175 2.261.425 3.366.746a8.573 8.573 0 012.964 1.555 3.916 3.916 0 011.346 4.07 5.231 5.231 0 01-2.288 3.524l-1.749 1.085c.166.418.3.85.401 1.289.088.406.178.836.268 1.288a5.079 5.079 0 01-2.423 5.965 4.171 4.171 0 01-3.297.543 6.602 6.602 0 01-3.031-1.491l-1.48-1.22a29.958 29.958 0 00-1.75 1.627 14.144 14.144 0 01-1.75 1.492 7.2 7.2 0 01-4.038 1.355 4.315 4.315 0 01-3.903-2.17 5.16 5.16 0 01-.538-3.93 8.75 8.75 0 012.019-3.526l.672-1.898-1.615-1.221c-2.064-1.626-2.827-3.524-2.287-5.694a4.11 4.11 0 011.749-2.711 4.987 4.987 0 012.96-1.085c.535.09 1.075.135 1.617.135h1.482l1.077-2.441a4.174 4.174 0 012.288-2.17 6.168 6.168 0 012.961-.542 4.83 4.83 0 012.759 1.288 6.763 6.763 0 011.548 2.51l.672 1.627zM105.862 59.441c2.845.779 4.785 4.413 4.785 7.917a67.569 67.569 0 00-1.297 12.853 55.278 55.278 0 003.88 19.857c1.293 4.023-1.298 7.008-7.113 7.268-6.129.348-6.776-8.232-7.215-14.041-.052-.686-.1-1.334-.155-1.924-1.549 5.058-10.602 14.922-18.101 14.533-4.267-.13-8.664-1.687-11.51-5.452a20.174 20.174 0 01-3.62-13.627c.65-9.085 5.301-17.91 11.896-22.322a14.593 14.593 0 017.76-2.336c4.396 0 8.534 2.206 11.509 6.748a13.41 13.41 0 011.034-3.634c1.423-4.413 4.268-7.008 8.147-5.84zM84.525 91.627c3.495 0 8.407-2.985 11.768-13.626.129-2.077-1.556-2.986-3.88-2.99-5.044 0-13.19 4.414-13.19 10.514a7.66 7.66 0 001.035 3.893 4.821 4.821 0 004.267 2.21zm60.573-29.424c2.674-3.267 6.362-7.773 10.682-7.304 1.09.03 2.127.477 2.896 1.25a4.269 4.269 0 011.243 2.903c-.118 2.748-1.882 4.616-3.674 6.515l-.465.494c-4.308 4.932-7.107 12.037-9.827 18.94-3.076 7.807-6.05 15.357-10.992 19.215a7.158 7.158 0 01-6.207 1.557 7.752 7.752 0 01-4.397-4.413c-1.574-4.18-2.352-8.76-3.142-13.405-.314-1.844-.629-3.699-.996-5.543-.465-2.695-.971-5.39-1.477-8.085-.761-4.054-1.523-8.108-2.144-12.161-.258-2.596.775-5.196 3.621-6.1 2.715-.649 6.336.909 7.112 3.375 1.666 5.46 3.046 10.921 4.467 16.547l.706 2.79c.277.937.493 1.891.647 2.856.563-1.028 1.106-2.056 1.645-3.076.821-1.555 1.633-3.092 2.492-4.581.669-1.096 1.271-2.143 1.853-3.155 1.555-2.706 2.966-5.161 5.131-7.617.263-.315.539-.651.826-1.002zm50.775-3.15c4.267 0 6.724 4.543 6.724 8.306l-.002-.001c0 2.593-.122 5.371-.248 8.214-.132 2.99-.268 6.053-.267 9.048 0 13.367 2.587 25.697 19.139 25.697 3.62 0 7.63 2.726 7.63 6.878 0 6.75-7.63 7.269-13.191 7.269-17.199 0-24.569-15.574-26.38-30.37-3.233 5.45-9.958 11.811-16.682 11.811-10.087 0-15.13-8.566-15.13-17.78 0-10.513 7.626-25.957 19.656-25.957 2.331.06 4.609.71 6.622 1.89a13.83 13.83 0 014.888 4.858c.646-3.763 2.586-9.863 7.241-9.863zM176.475 91.63c5.69 0 11.769-9.733 11.769-13.627l-.002-.002c0-2.336-1.94-2.985-3.878-2.983-5.302 0-13.19 4.542-13.19 10.513 0 3.244 1.81 6.1 5.301 6.1zm89.039-80.037c1.82.78 3.467 1.913 4.847 3.334l-.001-.001.002.002-.001-.001a15.661 15.661 0 014.786 11.293 19.32 19.32 0 01-1.035 5.97c-1.81 5.32-6.08 9.214-10.992 11.81a28.622 28.622 0 01-12.156 3.112l-1.422 14.018c-.388 5.061-.517 10.383-.517 15.574 0 9.214.517 17.91 1.81 24.269 1.035 5.322-3.492 8.435-7.371 8.435a5.44 5.44 0 01-4.01-1.687c-1.164-1.253-1.847-4.114-2.462-6.687-.341-1.43-.661-2.77-1.03-3.696-4.785 6.097-9.182 8.434-13.061 8.434-8.794 0-14.613-12.59-14.613-23.75 0-4.153.776-8.177 2.586-11.162 3.621-6.23 8.923-10.643 15.389-10.643a17.794 17.794 0 019.44 2.985l1.164-9.864c.258-2.333.646-4.666 1.033-6.999l.002-.01c-2.716-.519-5.432-1.297-8.148-2.076a140.365 140.365 0 01-19.914-8.306 126.877 126.877 0 01-25.469 14.54c-5.82 2.34-12.156 4.024-18.363 3.244a22.019 22.019 0 01-14.096-8.046 16.482 16.482 0 01-3.492-9.994c0-7.398 4.914-14.796 11.768-18.56a37.942 37.942 0 0118.747-4.671c4.511 0 8.997.656 13.32 1.947a144.51 144.51 0 0116.681 6.748l1.552-1.038c2.845-2.336 5.575-4.672 8.305-7.008 1.365-1.169 2.731-2.337 4.11-3.505.907-.796 1.801-1.668 2.702-2.545 3.211-3.127 6.506-6.337 10.747-6.54 1.81-.13 4.138 3.244 4.138 5.191 0 2.077-11.38 15.314-19.268 21.414l1.164.649c.873.37 1.72.737 2.552 1.098 4.713 2.043 8.951 3.88 14.776 4.872 1.035-8.173 6.465-18.296 14.742-22.19a12.614 12.614 0 015.302-1.168c1.98.018 3.936.429 5.756 1.208zm-94.081 28.251c3.233 0 7.5-.908 13.191-3.244a88.078 88.078 0 0012.284-6.749c-4.785-3.894-11.379-5.45-17.069-5.45a23.863 23.863 0 00-6.467.777c-5.56 1.428-9.051 5.841-9.051 9.475 0 2.855 2.069 5.191 7.112 5.191zm60.908 31.149c-.35-.03-.703.014-1.035.13-5.561.129-8.405 6.749-8.405 12.325 0 4.413 1.68 8.177 5.172 8.177 1.813 0 4.009-1.039 6.725-3.505l.517-.259c-.028-.51-.032-1.46-.036-2.655-.016-4.276-.044-11.687-1.257-13.31a9.853 9.853 0 01-1.164-.903h-.517zm20.044-36.34c.647-3.244 4.397-15.055 9.57-11.162 3.62 4.413-5.561 12.2-9.57 11.162zm44.097 24.789c2.845.779 4.785 4.413 4.785 7.917a67.616 67.616 0 00-1.293 12.85 55.235 55.235 0 003.88 19.857c1.293 4.023-1.299 7.008-7.113 7.268-6.129.348-6.777-8.232-7.215-14.041-.052-.686-.101-1.334-.156-1.924-1.551 5.062-10.604 14.926-18.104 14.537-4.268-.13-8.665-1.687-11.51-5.452a20.175 20.175 0 01-3.621-13.627c.647-9.085 5.303-17.91 11.898-22.323a14.594 14.594 0 017.758-2.336c4.392 0 8.536 2.206 11.51 6.748.172-1.254.52-2.477 1.035-3.634 1.422-4.413 4.268-7.008 8.146-5.84zm-21.333 32.186c3.492 0 8.406-2.984 11.768-13.627.126-2.076-1.556-2.985-3.879-2.988-5.044 0-13.19 4.413-13.19 10.513a7.657 7.657 0 001.034 3.893 4.818 4.818 0 004.267 2.21zm-123.868 35.997c-5.621-.284-11.182-.565-16.745-1.082a4.304 4.304 0 01-2.937-1.266 4.321 4.321 0 01-1.258-2.945c0-2.445 2.03-3.94 4.195-4.211a170.408 170.408 0 0122.055-1.223h10.97c.786.028 1.61.028 2.454.028 3.369 0 7.049 0 9.863 1.738a5.49 5.49 0 012.436 4.619 4.695 4.695 0 01-2.436 4.211 14.98 14.98 0 01-6.498 1.222c-1.377 0-2.817-.125-4.235-.248-.671-.058-1.338-.116-1.99-.159l-10.558-.408c-1.779-.097-3.55-.187-5.316-.276zm43.444 99.621a34.273 34.273 0 006.498-7.612 34.458 34.458 0 004.293-9.795 18.11 18.11 0 00-9.167.616 34.57 34.57 0 00-8.993 4.252 29.846 29.846 0 00-6.846 6.157c-1.818 2.275-2.727 4.346-2.727 6.213.001 2.014 1.084 3.506 3.25 4.477a8.707 8.707 0 006.44 0 22.17 22.17 0 007.252-4.308z" fill="#44405A"/></svg>