<svg width="480" height="540" viewBox="0 0 480 540" fill="none" xmlns="http://www.w3.org/2000/svg">
<path d="M480 387.391C480 393.376 478.4 398.9 475.2 403.964C472.457 409.488 468.343 413.862 462.857 417.084L256.457 535.166C251.886 538.389 246.4 540 240 540C234.057 540 228.8 538.389 224.229 535.166L16.4571 417.084C11.4286 413.862 7.31428 409.488 4.1143 403.964C1.37144 398.9 1.33226e-05 393.376 1.35842e-05 387.391L2.3877e-05 151.918C2.41386e-05 145.933 1.37145 140.179 4.11431 134.655C7.31429 129.591 11.4286 125.678 16.4571 122.916L224.229 4.14321C228.8 1.38106 234.057 -1.07505e-05 240 -1.04907e-05C246.4 -1.0211e-05 251.886 1.38107 256.457 4.14321L462.857 122.916C468.343 125.678 472.457 129.591 475.2 134.655C478.4 140.179 480 145.934 480 151.918L480 387.391Z" fill="black"/>
</svg>
