<svg width="480" height="480" viewBox="0 0 480 480" fill="none" xmlns="http://www.w3.org/2000/svg">
<path d="M280.396 237.949C308.458 232.935 334.71 223.362 359.151 209.231C383.593 195.1 404.639 177.55 422.291 156.581C440.396 135.613 454.427 111.681 464.385 84.7863C474.795 57.8918 480 29.6296 480 3.05176e-05L0 3.05176e-05C0 29.6296 4.97878 57.8918 14.9363 84.7863C25.3465 111.681 39.3777 135.613 57.0297 156.581C75.1344 177.55 96.4074 195.1 120.849 209.231C145.29 223.362 171.542 232.935 199.604 237.949L0 237.949C0 271.225 6.33663 302.45 19.0099 331.624C31.6832 361.254 48.8826 387.009 70.6082 408.889C92.3338 430.769 117.68 448.091 146.648 460.855C176.068 473.618 207.298 480 240.339 480C272.928 480 303.706 473.618 332.673 460.855C362.093 448.091 387.666 430.769 409.392 408.889C431.117 387.009 448.317 361.254 460.99 331.624C473.663 302.45 480 271.225 480 237.949L280.396 237.949Z" fill="black"/>
</svg>
