<svg width="460" height="506" viewBox="0 0 460 506" fill="none" xmlns="http://www.w3.org/2000/svg">
<path d="M396.877 506H0C0 485.219 3.14406 468.787 9.43218 456.705C16.204 444.139 23.4595 432.541 31.1987 421.908C39.4217 411.276 46.6772 399.919 52.9653 387.837C59.7371 375.271 63.123 358.598 63.123 337.817C63.123 316.552 59.7371 299.879 52.9653 287.797C46.6772 275.231 39.4217 263.632 31.1987 253C23.4595 242.368 16.204 231.01 9.43218 218.928C3.14406 206.363 0 189.448 0 168.183C0 147.402 3.14406 130.97 9.43218 118.888C16.204 106.323 23.4595 94.724 31.1987 84.0917C39.4217 73.4594 46.6772 62.1022 52.9653 50.0201C59.7371 37.4546 63.123 20.7813 63.123 0H460C460 20.7813 456.614 37.4546 449.842 50.0201C443.554 62.1022 436.299 73.4594 428.076 84.0917C420.336 94.724 413.081 106.323 406.309 118.888C400.021 130.97 396.877 147.402 396.877 168.183C396.877 189.448 400.021 206.363 406.309 218.928C413.081 231.01 420.336 242.368 428.076 253C436.299 263.632 443.554 275.231 449.842 287.797C456.614 299.879 460 316.552 460 337.817C460 358.598 456.614 375.271 449.842 387.837C443.554 399.919 436.299 411.276 428.076 421.908C420.336 432.541 413.081 444.139 406.309 456.705C400.021 468.787 396.877 485.219 396.877 506Z" fill="black"/>
</svg>
