<svg width="480" height="480" viewBox="0 0 480 480" fill="none" xmlns="http://www.w3.org/2000/svg">
<path d="M265.788 7.55564C289.416 -7.61144 321.067 0.85391 333.939 25.8091C342.491 42.387 359.948 52.4396 378.55 51.5578C406.675 50.2351 429.774 73.3385 428.452 101.468C427.57 120.074 437.621 137.534 454.196 146.088C479.146 158.962 487.61 190.619 472.446 214.251C462.395 229.947 462.395 250.053 472.446 265.749C487.61 289.381 479.146 321.038 454.196 333.912C437.621 342.466 427.57 359.926 428.452 378.532C429.774 406.662 406.675 429.765 378.55 428.442C359.948 427.56 342.491 437.613 333.939 454.191C321.067 479.146 289.416 487.611 265.788 472.444C250.095 462.392 229.993 462.392 214.3 472.444C190.672 487.611 159.021 479.146 146.149 454.191C137.597 437.613 120.14 427.56 101.538 428.442C73.4131 429.765 50.314 406.662 51.6365 378.532C52.5182 359.926 42.4674 342.466 25.8925 333.912C0.853753 321.038 -7.61004 289.469 7.55425 265.837C17.605 250.141 17.605 229.947 7.55425 214.251C-7.61004 190.619 0.853751 158.962 25.8043 146.088C42.3792 137.534 52.43 120.074 51.5483 101.468C50.2259 73.4266 73.4131 50.2351 101.449 51.5578C120.052 52.4396 137.509 42.387 146.061 25.8091C159.021 0.85391 190.584 -7.61144 214.212 7.55564C229.905 17.6082 250.095 17.6082 265.788 7.55564Z" fill="black"/>
</svg>
