<svg width="520" height="520" viewBox="0 0 520 520" fill="none" xmlns="http://www.w3.org/2000/svg">
<path fill-rule="evenodd" clip-rule="evenodd" d="M43.3333 0H0V43.3333V86.6666H43.3333V43.3333H86.6667H130H173.333V70H130H70V130V173.333L43.3333 173.333V130V86.6667H0V130V173.333V216.667H43.3333H86.6667H130H173.333H216.667H260H303.333H346.667H390H433.333H476.667H520V173.333V130V86.6667H476.667V130L476.667 173.333H450V130V70H390H346.667V43.3333H390H433.333H476.667L476.667 86.6666H520V43.3333V0H476.667H433.333H390H346.667H303.333H260H216.667H173.333H130H86.6667H43.3333ZM0 216.667V260V303.333V346.667V390V433.333V476.667V520H43.3333H86.6667H130H173.333H216.667H260H303.333H346.667H390H433.333H476.667H520V476.667V433.333V390V346.667V303.333V260V216.667H476.667H433.333H390H346.667H303.333H260H216.667H173.333H130H86.6667H43.3333H0ZM476.667 476.667L476.667 433.333V390L476.667 346.667H450V390V450H390H346.667V476.667L390 476.667H433.333H476.667ZM173.333 476.667V450H130H70V390V346.667H43.3333V390V433.333V476.667L86.6667 476.667H130H173.333Z" fill="black"/>
</svg>
