<svg width="400" height="674" viewBox="0 0 400 674" fill="none" xmlns="http://www.w3.org/2000/svg">
<path d="M-2.07637e-05 198.982C-2.19568e-05 171.687 5.2019 146.029 15.6057 122.009C26.0096 97.4434 40.2464 76.1532 58.3162 58.1384C76.386 40.1235 97.7412 25.93 122.382 15.5578C146.475 5.1856 172.211 -0.000495809 199.589 -0.000497006C226.968 -0.000498202 252.977 5.1856 277.618 15.5578C302.259 25.93 323.614 40.1235 341.684 58.1384C359.754 76.1532 373.99 97.4434 384.394 122.009C394.798 146.029 400 171.687 400 198.982L400 475.017C400 502.312 394.798 528.243 384.394 552.809C373.99 576.828 359.754 597.846 341.684 615.861C323.614 633.875 302.259 648.069 277.618 658.441C252.977 668.813 226.968 674 199.589 674C172.211 674 146.475 668.813 122.382 658.441C97.7413 648.069 76.386 633.876 58.3162 615.861C40.2464 597.846 26.0096 576.828 15.6057 552.809C5.20192 528.243 -1.9679e-06 502.312 -3.16101e-06 475.017L-2.07637e-05 198.982Z" fill="black"/>
</svg>
