<svg width="600" height="571" viewBox="0 0 600 571" fill="none" xmlns="http://www.w3.org/2000/svg">
<path d="M294.952 2.85974C297.313 -0.816838 302.687 -0.816831 305.048 2.85975L407.83 162.879C408.642 164.144 409.9 165.058 411.354 165.44L595.303 213.742C599.529 214.852 601.19 219.963 598.423 223.345L477.996 370.544C477.044 371.708 476.564 373.186 476.65 374.687L487.556 564.559C487.806 568.922 483.459 572.081 479.387 570.494L302.178 501.449C300.777 500.903 299.223 500.903 297.822 501.449L120.613 570.494C116.541 572.081 112.194 568.922 112.444 564.559L123.35 374.687C123.436 373.186 122.956 371.708 122.004 370.544L1.57696 223.345C-1.18994 219.963 0.470646 214.852 4.69702 213.742L188.646 165.44C190.1 165.058 191.358 164.144 192.17 162.879L294.952 2.85974Z" fill="black"/>
</svg>
