<svg width="567" height="648" viewBox="0 0 567 648" fill="none" xmlns="http://www.w3.org/2000/svg">
<path fill-rule="evenodd" clip-rule="evenodd" d="M283 0L353 40V120L283 160L213 120V40L283 0ZM70 122L140 162V242L70 282L0 242V162L70 122ZM212 122L282 162V242L212 282L142 242V162L212 122ZM141 244L211 284V364L141 404L71 364V284L141 244ZM283 244L353 284V364L283 404L213 364V284L283 244ZM495 284L425 244L355 284V364L425 404L495 364V284ZM282 406L212 366L142 406V486L212 526L282 486V406ZM426 648L496 608V528L426 488L356 528V608L426 648ZM211 608L141 648L71 608V528L141 488L211 528V608ZM140 406L70 366L0 406V486L70 526L140 486V406ZM354 122L424 162V242L354 282L284 242V162L354 122ZM424 406L354 366L284 406V486L354 526L424 486V406ZM496 122L566 162V242L496 282L426 242V162L496 122ZM567 406L497 366L427 406V486L497 526L567 486V406ZM495 40L425 0L355 40V120L425 160L495 120V40Z" fill="black"/>
</svg>
